<?xml version="1.0" encoding="UTF-8"?><svg xmlns="http://www.w3.org/2000/svg" viewBox="0 0 725.23 367.85"><defs><style>.d{fill:teal;}.e{fill:#fff;}.f{fill:#bbf1f1;}.g{fill:#35b5ac;}</style></defs><g id="a"/><g id="b"><g id="c"><g><rect class="g" y="62.29" width="365.37" height="269.44" rx="13.59" ry="13.59"/><rect class="d" x="52.83" y="113.1" width="259.7" height="85" rx="25.4" ry="25.4"/><circle class="f" cx="84.29" cy="155.42" r="48.99"/><rect class="d" x="114.48" y="244.16" width="138.23" height="39.29" rx="3.18" ry="3.18"/><path class="g" d="M226.83,.85c-2.58-1.63-5.98-.86-7.61,1.72l-35.62,56.38L147.97,2.57c-1.63-2.58-5.03-3.34-7.61-1.72-2.58,1.63-3.34,5.03-1.72,7.61l40.13,63.52c1.08,1.71,2.94,2.6,4.82,2.55,1.88,.05,3.74-.84,4.82-2.55L228.54,8.46c1.63-2.58,.86-5.98-1.72-7.61Z"/><g><path class="e" d="M409.13,226.32c-3.52,0-6.03,2.97-6.03,7.66,0,3.98,2.01,7.29,5.99,7.29,2.26,0,4.31-1.42,5.11-3.77,.21-.63,.29-1.34,.29-1.97v-3.64c0-.63-.04-1.17-.21-1.67-.67-2.14-2.47-3.89-5.15-3.89Z"/><path class="e" d="M418.72,276.45c-4.36,0-6.24,4.02-6.24,7.87,0,4.44,2.55,7.79,6.16,7.79s6.15-3.31,6.15-7.87c0-3.43-1.72-7.79-6.07-7.79Z"/><path class="e" d="M511.05,276.45c-4.36,0-6.24,4.02-6.24,7.87,0,4.44,2.55,7.79,6.16,7.79s6.15-3.31,6.15-7.87c0-3.43-1.72-7.79-6.07-7.79Z"/><path class="e" d="M613.48,226.32c-3.81,0-6.07,3.35-6.07,7.83,0,4.1,2.01,7.5,5.99,7.5,2.47,0,4.73-1.63,5.4-4.4,.13-.5,.17-1,.17-1.59v-3.52c0-.46-.04-1.09-.17-1.55-.54-2.34-2.55-4.27-5.32-4.27Z"/><path class="e" d="M589.86,226.32c-3.81,0-6.07,3.35-6.07,7.83,0,4.1,2.01,7.5,5.99,7.5,2.47,0,4.73-1.63,5.4-4.4,.13-.5,.17-1,.17-1.59v-3.52c0-.46-.04-1.09-.17-1.55-.54-2.34-2.55-4.27-5.32-4.27Z"/><path class="e" d="M492.63,226.36c-2.51,0-4.86,1.8-5.57,4.56-.12,.46-.25,1-.25,1.51v3.48c0,.54,.08,1.05,.17,1.51,.67,2.55,2.89,4.31,5.53,4.31,3.89,0,6.16-3.18,6.16-7.83,0-4.06-2.14-7.54-6.03-7.54Z"/><path class="e" d="M563.44,238.38c0,2.39,1.59,3.52,3.47,3.52,2.64,0,4.31-1.67,4.9-3.39,.12-.38,.21-.8,.21-1.17v-3.52c-4.02-.08-8.58,.63-8.58,4.56Z"/><path class="e" d="M544.05,233.98c0-3.43-1.72-7.79-6.07-7.79s-6.24,4.02-6.24,7.87c0,4.44,2.55,7.79,6.16,7.79s6.15-3.31,6.15-7.87Z"/><path class="e" d="M707.4,159.75H346.78c-9.84,0-17.82,7.98-17.82,17.82v30.52l-32.57,18.81,32.57,18.81v104.32c0,9.84,7.98,17.82,17.82,17.82h360.62c9.84,0,17.82-7.98,17.82-17.82V177.57c0-9.84-7.98-17.82-17.82-17.82Zm-261.97,71.72h10.34v2.72h-10.34v-2.72Zm-52.55-15.58c1.38,0,2.26,1,2.26,2.3,.04,1.26-.88,2.26-2.34,2.26-1.3,0-2.22-1-2.22-2.26s.96-2.3,2.3-2.3Zm1.84,8v20.27h-3.68v-20.27h3.68Zm-20.06,70.94c-2.22,0-4.27-.54-5.69-1.38l.92-2.81c1.09,.71,3.01,1.47,4.86,1.47,2.68,0,3.94-1.34,3.94-3.01,0-1.76-1.05-2.72-3.77-3.73-3.64-1.3-5.36-3.31-5.36-5.74,0-3.27,2.64-5.95,6.99-5.95,2.05,0,3.85,.59,4.98,1.26l-.92,2.68c-.79-.5-2.26-1.17-4.14-1.17-2.18,0-3.39,1.26-3.39,2.76,0,1.67,1.21,2.43,3.85,3.43,3.52,1.34,5.32,3.1,5.32,6.11,0,3.56-2.76,6.07-7.58,6.07Zm1.63-50.25c-2.72,0-5.69-.8-7.2-1.8l.92-3.06c1.63,1,4.02,1.84,6.53,1.84,3.73,0,5.9-1.97,5.9-4.82,0-2.64-1.51-4.15-5.32-5.61-4.61-1.63-7.45-4.02-7.45-8,0-4.4,3.64-7.66,9.13-7.66,2.89,0,4.98,.67,6.24,1.38l-1,2.97c-.92-.5-2.81-1.34-5.36-1.34-3.85,0-5.32,2.3-5.32,4.23,0,2.64,1.72,3.94,5.61,5.44,4.77,1.84,7.2,4.14,7.2,8.29,0,4.35-3.22,8.12-9.88,8.12Zm27.93,49.83h-3.68v-11.64c0-3.27-1.21-6.03-4.69-6.03-2.39,0-4.27,1.67-4.94,3.68-.21,.5-.25,1.05-.25,1.76v12.23h-3.68v-29.73h3.68v12.64h.08c.59-1.05,1.51-1.97,2.64-2.6,1.09-.63,2.39-1.05,3.77-1.05,2.72,0,7.08,1.67,7.08,8.67v12.06Zm-3.1-43.18l.92-2.81c1.34,.84,3.43,1.59,5.95,1.59,3.77,0,6.53-1.97,6.53-7.08v-2.26h-.08c-1.13,1.88-3.31,3.39-6.45,3.39-5.02,0-8.62-4.27-8.62-9.88,0-6.87,4.48-10.76,9.13-10.76,3.52,0,5.44,1.84,6.32,3.52h.08l.17-3.06h3.22c-.08,1.47-.17,3.1-.17,5.57v11.77c0,4.65-.92,7.49-2.89,9.25-1.97,1.84-4.82,2.43-7.37,2.43s-5.11-.59-6.74-1.67Zm17.33,43.64c-5.48,0-9.71-4.02-9.71-10.43,0-6.78,4.44-10.76,10.05-10.76s9.76,4.23,9.76,10.43c0,7.49-5.19,10.76-10.09,10.76Zm9.46-64.61c-.17,.46-.25,1.09-.25,1.72v12.18h-3.68v-14.78c0-2.09-.04-3.81-.17-5.49h3.27l.21,3.35h.08c1-1.93,3.35-3.81,6.7-3.81,2.8,0,7.16,1.67,7.16,8.62v12.1h-3.68v-11.68c0-3.27-1.21-5.99-4.69-5.99-2.43,0-4.31,1.72-4.94,3.77Zm25.58,64.15h-3.35l-3.1-9.67c-.71-2.26-1.3-4.27-1.8-6.66h-.08c-.5,2.43-1.13,4.52-1.84,6.7l-3.27,9.63h-3.35l-6.11-20.27h3.77l2.68,10.3c.59,2.26,1.13,4.35,1.51,6.45h.13c.46-2.05,1.13-4.23,1.8-6.41l3.31-10.34h3.1l3.14,10.13c.75,2.43,1.34,4.56,1.8,6.62h.13c.33-2.05,.88-4.19,1.55-6.57l2.89-10.17h3.64l-6.53,20.27Zm14.24,.42c-2.22,0-4.27-.54-5.69-1.38l.92-2.81c1.09,.71,3.01,1.47,4.86,1.47,2.68,0,3.94-1.34,3.94-3.01,0-1.76-1.05-2.72-3.77-3.73-3.64-1.3-5.36-3.31-5.36-5.74,0-3.27,2.64-5.95,6.99-5.95,2.05,0,3.85,.59,4.98,1.26l-.92,2.68c-.79-.5-2.26-1.17-4.14-1.17-2.18,0-3.39,1.26-3.39,2.76,0,1.67,1.21,2.43,3.85,3.43,3.52,1.34,5.32,3.1,5.32,6.11,0,3.56-2.76,6.07-7.58,6.07Zm6.19-50.67l-.21-3.31h-.08c-.96,1.63-3.1,3.77-6.7,3.77-3.18,0-6.99-1.76-6.99-8.88v-11.85h3.68v11.22c0,3.85,1.17,6.45,4.52,6.45,2.47,0,4.19-1.72,4.86-3.35,.21-.54,.33-1.21,.33-1.88v-12.44h3.68v14.74c0,2.09,.04,3.94,.17,5.53h-3.27Zm24.71,32.79h-5.28v10.93c0,2.51,.71,3.94,2.76,3.94,.96,0,1.67-.13,2.14-.25l.17,2.76c-.71,.29-1.84,.5-3.27,.5-1.72,0-3.1-.54-3.98-1.55-1.05-1.09-1.42-2.89-1.42-5.28v-11.05h-3.14v-2.81h3.14v-4.86l3.6-.96v5.82h5.28v2.81Zm-5.53-32.33c-2.68,0-5.02-1.17-6.24-3.18h-.08v11.01h-3.64v-21.94c0-2.6-.08-4.69-.17-6.62h3.31l.17,3.48h.08c1.51-2.47,3.89-3.94,7.2-3.94,4.9,0,8.58,4.15,8.58,10.3,0,7.29-4.44,10.89-9.21,10.89Zm17.67,50.25c-5.48,0-9.71-4.02-9.71-10.43,0-6.78,4.44-10.76,10.05-10.76s9.76,4.23,9.76,10.43c0,7.49-5.19,10.76-10.09,10.76Zm14.78-68.17h-5.28v10.93c0,2.51,.71,3.94,2.76,3.94,.96,0,1.67-.13,2.14-.25l.17,2.76c-.71,.29-1.84,.5-3.27,.5-1.72,0-3.1-.54-3.98-1.55-1.05-1.09-1.42-2.89-1.42-5.28v-11.05h-3.14v-2.81h3.14v-4.86l3.6-.96v5.82h5.28v2.81Zm2.43,7.5c0-6.78,4.44-10.76,10.05-10.76s9.76,4.23,9.76,10.43c0,7.49-5.19,10.76-10.09,10.76-5.48,0-9.71-4.02-9.71-10.43Zm17.25,54.4c-2.64,6.95-4.44,10.51-6.95,12.69-1.8,1.59-3.6,2.22-4.52,2.39l-.92-3.1c.92-.29,2.13-.88,3.22-1.8,1-.8,2.26-2.22,3.1-4.1,.17-.38,.29-.67,.29-.88s-.08-.5-.25-.96l-7.49-18.67h4.02l4.44,11.98c.46,1.34,.96,2.93,1.3,4.14h.08c.38-1.21,.79-2.76,1.3-4.23l4.02-11.89h3.89l-5.53,14.45Zm16.71,6.28c-5.48,0-9.71-4.02-9.71-10.43,0-6.78,4.44-10.76,10.05-10.76s9.76,4.23,9.76,10.43c0,7.49-5.19,10.76-10.09,10.76Zm10.59-50.71l-.29-2.55h-.12c-1.13,1.59-3.31,3.01-6.2,3.01-4.1,0-6.2-2.89-6.2-5.82,0-4.9,4.35-7.58,12.18-7.54v-.42c0-1.67-.46-4.69-4.61-4.69-1.88,0-3.85,.59-5.28,1.51l-.84-2.43c1.67-1.09,4.1-1.8,6.66-1.8,6.2,0,7.7,4.23,7.7,8.29v7.58c0,1.76,.08,3.48,.33,4.86h-3.35Zm18.01,50.25l-.21-3.31h-.08c-.96,1.63-3.1,3.77-6.7,3.77-3.18,0-6.99-1.76-6.99-8.88v-11.85h3.68v11.22c0,3.85,1.17,6.45,4.52,6.45,2.47,0,4.19-1.72,4.86-3.35,.21-.54,.33-1.21,.33-1.88v-12.44h3.68v14.74c0,2.09,.04,3.94,.17,5.53h-3.27Zm5.32-50.25l-.17-3.52h-.08c-1.13,2.26-3.6,3.98-6.91,3.98-4.9,0-8.67-4.15-8.67-10.3-.04-6.74,4.15-10.89,9.09-10.89,3.1,0,5.19,1.47,6.11,3.1h.08v-12.1h3.68v24.49c0,1.8,.04,3.85,.17,5.23h-3.31Zm13.91,33.13c-.38-.08-.75-.12-1.26-.12-2.6,0-4.44,1.97-4.94,4.73-.08,.5-.17,1.09-.17,1.72v10.8h-3.64v-13.94c0-2.39-.04-4.44-.17-6.32h3.22l.12,3.98h.17c.92-2.72,3.14-4.44,5.61-4.44,.42,0,.71,.04,1.05,.13v3.47Zm9.55-36.64h-.08c-1.13,2.26-3.6,3.98-6.91,3.98-4.9,0-8.67-4.15-8.67-10.3-.04-6.74,4.15-10.89,9.09-10.89,3.1,0,5.19,1.47,6.11,3.1h.08v-12.1h3.68v24.49c0,1.8,.04,3.85,.17,5.23h-3.31l-.17-3.52Zm6.7,53.77h-3.68v-29.73h3.68v29.73Zm9.88,0h-3.68v-20.27h3.68v20.27Zm-1.93-23.7c-1.3,0-2.22-1-2.22-2.26s.96-2.3,2.3-2.3,2.26,1,2.26,2.3c.04,1.26-.88,2.26-2.34,2.26Zm12.31,24.12c-2.22,0-4.27-.54-5.69-1.38l.92-2.81c1.09,.71,3.01,1.47,4.86,1.47,2.68,0,3.94-1.34,3.94-3.01,0-1.76-1.05-2.72-3.77-3.73-3.64-1.3-5.36-3.31-5.36-5.74,0-3.27,2.64-5.95,6.99-5.95,2.05,0,3.85,.59,4.98,1.26l-.92,2.68c-.79-.5-2.26-1.17-4.14-1.17-2.18,0-3.39,1.26-3.39,2.76,0,1.67,1.21,2.43,3.85,3.43,3.52,1.34,5.32,3.1,5.32,6.11,0,3.56-2.76,6.07-7.58,6.07Zm22.03-17.88h-5.28v10.93c0,2.51,.71,3.94,2.76,3.94,.96,0,1.67-.13,2.14-.25l.17,2.76c-.71,.29-1.84,.5-3.27,.5-1.72,0-3.1-.54-3.98-1.55-1.05-1.09-1.42-2.89-1.42-5.28v-11.05h-3.14v-2.81h3.14v-4.86l3.6-.96v5.82h5.28v2.81Zm5.61,17.92c-1.46,0-2.47-1.13-2.47-2.64s1.05-2.64,2.51-2.64,2.47,1.09,2.47,2.64-.96,2.64-2.51,2.64Z"/><path class="e" d="M562.23,276.45c-4.35,0-6.24,4.02-6.24,7.87,0,4.44,2.55,7.79,6.16,7.79s6.15-3.31,6.15-7.87c0-3.43-1.72-7.79-6.07-7.79Z"/></g></g></g></g></svg>