<?xml version="1.0" encoding="UTF-8"?><svg xmlns="http://www.w3.org/2000/svg" viewBox="0 0 725.23 367.85"><defs><style>.d{fill:teal;}.e{fill:#fff;}.f{fill:#bbf1f1;}.g{fill:#35b5ac;}</style></defs><g id="a"/><g id="b"><g id="c"><g><rect class="g" y="62.29" width="365.37" height="269.44" rx="13.59" ry="13.59"/><rect class="d" x="52.83" y="113.1" width="259.7" height="85" rx="25.4" ry="25.4"/><circle class="f" cx="84.29" cy="155.42" r="48.99"/><rect class="d" x="114.48" y="244.16" width="138.23" height="39.29" rx="3.18" ry="3.18"/><path class="g" d="M226.83,.85c-2.58-1.63-5.98-.86-7.61,1.72l-35.62,56.38L147.97,2.57c-1.63-2.58-5.03-3.34-7.61-1.72-2.58,1.63-3.34,5.03-1.72,7.61l40.13,63.52c1.08,1.71,2.94,2.6,4.82,2.55,1.88,.05,3.74-.84,4.82-2.55L228.54,8.46c1.63-2.58,.86-5.98-1.72-7.61Z"/><g><path class="e" d="M583.39,282.27c-4.87,0-6.98,4.5-6.98,8.81,0,4.96,2.86,8.71,6.89,8.71s6.89-3.7,6.89-8.81c0-3.84-1.92-8.71-6.79-8.71Z"/><path class="e" d="M626.35,226.19c-4.26,0-6.79,3.75-6.79,8.76,0,4.59,2.25,8.39,6.7,8.39,2.76,0,5.29-1.83,6.04-4.92,.14-.56,.19-1.12,.19-1.78v-3.93c0-.52-.05-1.22-.19-1.73-.61-2.62-2.86-4.78-5.95-4.78Z"/><path class="e" d="M526.14,282.27c-4.87,0-6.98,4.5-6.98,8.81,0,4.96,2.86,8.71,6.89,8.71s6.89-3.7,6.89-8.81c0-3.84-1.92-8.71-6.79-8.71Z"/><path class="e" d="M606.06,236.64v-3.93c0-.52-.05-1.22-.19-1.73-.61-2.62-2.86-4.78-5.95-4.78-4.26,0-6.79,3.75-6.79,8.76,0,4.59,2.25,8.39,6.7,8.39,2.76,0,5.29-1.83,6.04-4.92,.14-.56,.19-1.12,.19-1.78Z"/><path class="e" d="M491.15,226.24c-2.81,0-5.43,2.01-6.23,5.11-.14,.52-.28,1.12-.28,1.69v3.89c0,.61,.09,1.17,.19,1.69,.75,2.86,3.23,4.83,6.18,4.83,4.36,0,6.89-3.56,6.89-8.76,0-4.54-2.39-8.43-6.75-8.43Z"/><path class="e" d="M570.36,239.68c0,2.67,1.78,3.94,3.89,3.94,2.95,0,4.82-1.87,5.48-3.79,.14-.42,.23-.89,.23-1.31v-3.93c-4.5-.09-9.6,.7-9.6,5.11Z"/><path class="e" d="M707.4,159.75H346.78c-9.84,0-17.82,7.98-17.82,17.82v30.52l-32.57,18.81,32.57,18.81v104.32c0,9.84,7.98,17.82,17.82,17.82h360.62c9.84,0,17.82-7.98,17.82-17.82V177.57c0-9.84-7.98-17.82-17.82-17.82Zm-132.68,66.25c-2.11,0-4.31,.66-5.9,1.69l-.94-2.72c1.87-1.22,4.59-2.01,7.45-2.01,6.93,0,8.62,4.73,8.62,9.28v8.48c0,1.97,.09,3.89,.38,5.43h-3.75l-.33-2.86h-.14c-1.27,1.78-3.7,3.37-6.93,3.37-4.59,0-6.93-3.23-6.93-6.51,0-5.48,4.87-8.48,13.63-8.43v-.47c0-1.87-.52-5.25-5.15-5.25Zm-180.78-11.48c1.55,0,2.53,1.12,2.53,2.58,.05,1.41-.98,2.53-2.62,2.53-1.45,0-2.48-1.12-2.48-2.53s1.08-2.58,2.58-2.58Zm2.06,8.95v22.67h-4.12v-22.67h4.12Zm-22.44,79.36c-2.48,0-4.78-.61-6.37-1.55l1.03-3.14c1.22,.8,3.37,1.64,5.43,1.64,3,0,4.4-1.5,4.4-3.37,0-1.97-1.17-3.04-4.22-4.17-4.08-1.45-6-3.7-6-6.42,0-3.65,2.95-6.65,7.82-6.65,2.3,0,4.31,.66,5.57,1.41l-1.03,3c-.89-.56-2.53-1.31-4.64-1.31-2.44,0-3.79,1.41-3.79,3.09,0,1.87,1.36,2.72,4.31,3.84,3.93,1.5,5.95,3.47,5.95,6.84,0,3.98-3.09,6.79-8.48,6.79Zm1.83-56.22c-3.04,0-6.37-.89-8.06-2.01l1.03-3.42c1.83,1.12,4.5,2.06,7.31,2.06,4.17,0,6.61-2.2,6.61-5.39,0-2.95-1.69-4.64-5.95-6.28-5.15-1.83-8.34-4.5-8.34-8.95,0-4.92,4.08-8.57,10.21-8.57,3.23,0,5.58,.75,6.98,1.55l-1.12,3.33c-1.03-.56-3.14-1.5-6-1.5-4.31,0-5.95,2.58-5.95,4.73,0,2.95,1.92,4.4,6.28,6.09,5.34,2.06,8.06,4.64,8.06,9.28,0,4.87-3.61,9.09-11.06,9.09Zm31.25,55.75h-4.12v-13.02c0-3.65-1.36-6.75-5.25-6.75-2.67,0-4.78,1.87-5.53,4.12-.23,.56-.28,1.17-.28,1.97v13.68h-4.12v-33.26h4.12v14.15h.09c.66-1.17,1.69-2.2,2.95-2.9,1.22-.7,2.67-1.17,4.22-1.17,3.04,0,7.92,1.87,7.92,9.7v13.49Zm-3.47-48.3l1.03-3.14c1.5,.94,3.84,1.78,6.65,1.78,4.22,0,7.31-2.2,7.31-7.92v-2.53h-.09c-1.27,2.11-3.7,3.79-7.21,3.79-5.62,0-9.65-4.78-9.65-11.06,0-7.68,5.01-12.04,10.21-12.04,3.93,0,6.09,2.06,7.07,3.94h.09l.19-3.42h3.61c-.09,1.64-.19,3.47-.19,6.23v13.16c0,5.2-1.03,8.39-3.23,10.35-2.2,2.06-5.39,2.72-8.25,2.72s-5.71-.66-7.54-1.87Zm19.39,48.81c-6.14,0-10.87-4.5-10.87-11.67,0-7.59,4.97-12.04,11.24-12.04s10.92,4.73,10.92,11.67c0,8.38-5.81,12.04-11.29,12.04Zm10.59-72.28c-.19,.52-.28,1.22-.28,1.92v13.63h-4.12v-16.54c0-2.34-.05-4.26-.19-6.14h3.65l.23,3.75h.09c1.12-2.16,3.75-4.26,7.5-4.26,3.14,0,8.01,1.87,8.01,9.65v13.54h-4.12v-13.07c0-3.65-1.36-6.7-5.25-6.7-2.72,0-4.83,1.92-5.53,4.22Zm28.62,71.77h-3.75l-3.47-10.82c-.8-2.53-1.45-4.78-2.01-7.45h-.09c-.56,2.72-1.27,5.06-2.06,7.5l-3.65,10.77h-3.75l-6.84-22.67h4.22l3,11.52c.66,2.53,1.26,4.87,1.69,7.21h.14c.52-2.3,1.27-4.73,2.01-7.17l3.7-11.57h3.47l3.51,11.34c.84,2.72,1.5,5.11,2.01,7.4h.14c.38-2.3,.98-4.68,1.73-7.35l3.23-11.38h4.08l-7.31,22.67Zm8.25-59.92h-.09c-1.08,1.83-3.47,4.22-7.5,4.22-3.56,0-7.82-1.97-7.82-9.93v-13.26h4.12v12.55c0,4.31,1.31,7.21,5.06,7.21,2.76,0,4.68-1.92,5.43-3.75,.23-.61,.38-1.36,.38-2.11v-13.91h4.12v16.49c0,2.34,.05,4.4,.19,6.18h-3.65l-.23-3.7Zm7.68,60.39c-2.48,0-4.78-.61-6.37-1.55l1.03-3.14c1.22,.8,3.37,1.64,5.43,1.64,3,0,4.4-1.5,4.4-3.37,0-1.97-1.17-3.04-4.22-4.17-4.08-1.45-6-3.7-6-6.42,0-3.65,2.95-6.65,7.82-6.65,2.3,0,4.31,.66,5.57,1.41l-1.03,3c-.89-.56-2.53-1.31-4.64-1.31-2.44,0-3.79,1.41-3.79,3.09,0,1.87,1.36,2.72,4.31,3.84,3.93,1.5,5.95,3.47,5.95,6.84,0,3.98-3.09,6.79-8.48,6.79Zm7.03-59.73h-.09v12.32h-4.08v-24.55c0-2.9-.09-5.25-.19-7.4h3.7l.19,3.89h.09c1.69-2.76,4.36-4.4,8.06-4.4,5.48,0,9.6,4.64,9.6,11.52,0,8.15-4.96,12.18-10.31,12.18-3,0-5.62-1.31-6.98-3.56Zm27.54,39.73h-5.9v12.23c0,2.81,.8,4.4,3.09,4.4,1.08,0,1.87-.14,2.39-.28l.19,3.09c-.8,.33-2.06,.56-3.65,.56-1.92,0-3.47-.61-4.45-1.73-1.17-1.22-1.59-3.23-1.59-5.9v-12.37h-3.51v-3.14h3.51v-5.43l4.03-1.08v6.51h5.9v3.14Zm2.3-59.35h3.51v-5.43l4.03-1.08v6.51h5.9v3.14h-5.9v12.23c0,2.81,.8,4.4,3.09,4.4,1.08,0,1.87-.14,2.39-.28l.19,3.09c-.8,.33-2.06,.56-3.65,.56-1.92,0-3.47-.61-4.45-1.73-1.17-1.22-1.59-3.23-1.59-5.9v-12.37h-3.51v-3.14Zm11.29,79.4c-6.14,0-10.87-4.5-10.87-11.67,0-7.59,4.97-12.04,11.24-12.04s10.92,4.73,10.92,11.67c0,8.38-5.81,12.04-11.29,12.04Zm4.87-67.88c0-7.59,4.96-12.04,11.24-12.04s10.92,4.73,10.92,11.67c0,8.38-5.81,12.04-11.29,12.04-6.14,0-10.87-4.5-10.87-11.67Zm33.68,60.85c-2.95,7.78-4.97,11.76-7.78,14.19-2.01,1.78-4.03,2.48-5.06,2.67l-1.03-3.47c1.03-.33,2.39-.98,3.61-2.01,1.12-.89,2.53-2.48,3.47-4.59,.19-.42,.33-.75,.33-.98s-.09-.56-.28-1.08l-8.38-20.89h4.5l4.96,13.4c.52,1.5,1.08,3.28,1.45,4.64h.09c.42-1.36,.89-3.09,1.45-4.73l4.5-13.3h4.36l-6.18,16.16Zm18.69,7.03c-6.14,0-10.87-4.5-10.87-11.67,0-7.59,4.97-12.04,11.24-12.04s10.92,4.73,10.92,11.67c0,8.38-5.81,12.04-11.29,12.04Zm5.86-67.74c-.05-7.54,4.64-12.18,10.17-12.18,3.47,0,5.81,1.64,6.84,3.47h.09v-13.54h4.12v27.4c0,2.01,.05,4.31,.19,5.86h-3.7l-.19-3.93h-.09c-1.26,2.53-4.03,4.45-7.73,4.45-5.48,0-9.7-4.64-9.7-11.52Zm26.14,67.22l-.23-3.7h-.09c-1.08,1.83-3.47,4.22-7.5,4.22-3.56,0-7.82-1.97-7.82-9.93v-13.26h4.12v12.55c0,4.31,1.31,7.21,5.06,7.21,2.76,0,4.68-1.92,5.43-3.75,.23-.61,.38-1.36,.38-2.11v-13.91h4.12v16.49c0,2.34,.05,4.4,.19,6.18h-3.65Zm17.8-60.15h-.09c-1.26,2.53-4.03,4.45-7.73,4.45-5.48,0-9.7-4.64-9.7-11.52-.05-7.54,4.64-12.18,10.17-12.18,3.47,0,5.81,1.64,6.84,3.47h.09v-13.54h4.12v27.4c0,2.01,.05,4.31,.19,5.86h-3.7l-.19-3.93Zm6.56,60.15h-4.12v-33.26h4.12v33.26Zm11.06,0h-4.12v-22.67h4.12v22.67Zm-2.16-26.51c-1.45,0-2.48-1.12-2.48-2.53s1.08-2.58,2.58-2.58,2.53,1.12,2.53,2.58c.05,1.41-.98,2.53-2.62,2.53Zm13.77,26.98c-2.48,0-4.78-.61-6.37-1.55l1.03-3.14c1.22,.8,3.37,1.64,5.43,1.64,3,0,4.4-1.5,4.4-3.37,0-1.97-1.17-3.04-4.22-4.17-4.08-1.45-6-3.7-6-6.42,0-3.65,2.95-6.65,7.82-6.65,2.3,0,4.31,.66,5.57,1.41l-1.03,3c-.89-.56-2.53-1.31-4.64-1.31-2.44,0-3.79,1.41-3.79,3.09,0,1.87,1.36,2.72,4.31,3.84,3.93,1.5,5.95,3.47,5.95,6.84,0,3.98-3.09,6.79-8.48,6.79Zm24.64-20h-5.9v12.23c0,2.81,.8,4.4,3.09,4.4,1.08,0,1.87-.14,2.39-.28l.19,3.09c-.8,.33-2.06,.56-3.65,.56-1.92,0-3.47-.61-4.45-1.73-1.17-1.22-1.59-3.23-1.59-5.9v-12.37h-3.51v-3.14h3.51v-5.43l4.03-1.08v6.51h5.9v3.14Z"/><path class="e" d="M412.12,226.19c-3.94,0-6.75,3.33-6.75,8.57,0,4.45,2.25,8.15,6.7,8.15,2.53,0,4.82-1.59,5.71-4.22,.23-.7,.33-1.5,.33-2.2v-4.08c0-.7-.05-1.31-.23-1.87-.75-2.39-2.76-4.36-5.76-4.36Z"/><path class="e" d="M422.85,282.27c-4.87,0-6.98,4.5-6.98,8.81,0,4.96,2.86,8.71,6.89,8.71s6.89-3.7,6.89-8.81c0-3.84-1.92-8.71-6.79-8.71Z"/><path class="e" d="M541.88,226.05c-4.87,0-6.98,4.5-6.98,8.81,0,4.96,2.86,8.71,6.89,8.71s6.89-3.7,6.89-8.81c0-3.84-1.92-8.71-6.79-8.71Z"/></g></g></g></g></svg>