<?xml version="1.0" encoding="UTF-8"?><svg xmlns="http://www.w3.org/2000/svg" viewBox="0 0 134.21 134.21"><defs><style>.d{fill:#f66;opacity:.7;}</style></defs><g id="a"/><g id="b"><g id="c"><path class="d" d="M67.1,0C30.04,0,0,30.04,0,67.1s30.04,67.1,67.1,67.1,67.1-30.04,67.1-67.1S104.16,0,67.1,0Zm34.85,39.46c-.31,1.29-1.17,2.21-2.08,3.12-8.8,8.78-17.58,17.57-26.37,26.36-.19,.19-.44,.31-.67,.47,0,.1,0,.2,0,.29,.22,.15,.48,.28,.67,.47,8.78,8.77,17.54,17.55,26.33,26.31,.93,.92,1.8,1.85,2.12,3.17v1.36c-.4,1.24-1,2.33-2.23,2.93-1.53,.75-2.98,.6-4.35-.4-.31-.23-.58-.51-.85-.78-8.94-8.93-17.87-17.87-26.81-26.8-.19-.19-.39-.37-.72-.69-.18,.26-.31,.51-.5,.7-8.98,8.99-17.96,17.97-26.95,26.95-1.6,1.6-3.49,1.93-5.24,.93-2.12-1.21-2.69-4.09-1.18-6.01,.24-.3,.51-.58,.78-.85,8.93-8.94,17.87-17.87,26.81-26.8,.19-.19,.44-.32,.66-.47,0-.1,0-.2,.01-.29-.22-.15-.48-.27-.67-.46-8.99-8.98-17.97-17.96-26.95-26.95-1.62-1.62-1.94-3.54-.9-5.3,.64-1.08,1.66-1.62,2.8-1.99h1.36c1.29,.32,2.21,1.16,3.12,2.07,8.78,8.8,17.57,17.58,26.36,26.38,.19,.19,.31,.44,.47,.67h.29c.15-.22,.28-.48,.47-.67,8.78-8.79,17.58-17.58,26.36-26.38,.91-.91,1.83-1.76,3.12-2.07h1.36c.33,.13,.67,.25,1,.39,1.32,.59,1.99,1.7,2.4,3.01v1.36Z"/></g></g></svg>