<?xml version="1.0" encoding="UTF-8"?><svg xmlns="http://www.w3.org/2000/svg" viewBox="0 0 91.51 150.34"><defs><style>.d{fill:teal;}</style></defs><g id="a"/><g id="b"><g id="c"><g><path class="d" d="M78.77,25.43c-2.53-5.2-5.08-10.43-8.18-15.31-1.88-2.96-4.5-5.62-7.27-7.8-4.36-3.43-8.93-3.02-12.8,.97-2.1,2.16-3.89,4.74-5.33,7.4-4.59,8.4-7.11,17.55-9.04,26.87-1.27,6.16-2.44,12.34-3.7,18.72h-9.86c.46,1.33,.6,2.37,1.13,3.13,6.19,8.93,12.45,17.82,18.69,26.71,1.37,1.95,2.77,2.12,4.21,.04,6.24-9.03,12.51-18.03,18.71-27.08,1.57-2.29,1.06-3.2-1.69-3.26-3.12-.07-6.24-.02-10.04-.02,.73-9.56,1.2-18.6,2.21-27.58,.45-4.02,1.64-8.05,3.11-11.83,1.23-3.16,3.62-3.49,6.04-1.29,3.56,3.24,5.44,7.54,7.72,12.18h6.88"/><path class="d" d="M86.79,18.96H4.72c-2.61,0-4.72,2.11-4.72,4.72v121.94c0,2.61,2.11,4.72,4.72,4.72H86.79c2.61,0,4.72-2.11,4.72-4.72V23.68c0-2.61-2.11-4.72-4.72-4.72Zm-4.15,117.37c0,2.61-2.11,4.72-4.72,4.72H14.3c-2.61,0-4.72-2.11-4.72-4.72V33.24c0-2.61,2.11-4.72,4.72-4.72h63.61c2.61,0,4.72,2.11,4.72,4.72v103.08Z"/></g></g></g></svg>