<?xml version="1.0" encoding="UTF-8"?><svg id="Layer_2" xmlns="http://www.w3.org/2000/svg" viewBox="0 0 89.96 67.73"><defs><style>.cls-1{fill:#939598;}</style></defs><g id="Layer_1-2"><g><path class="cls-1" d="M89.96,34.74c-.06,.1-.13,.19-.16,.3-.71,2.13-2.2,3.27-4.44,3.31-1.84,.03-3.69,0-5.53,0-18,0-36,0-54.01,0-2.1,0-3.72-.75-4.6-2.71-1.23-2.74,.57-5.87,3.55-6.22,.49-.06,.99-.06,1.49-.06,19.35,0,38.7,.02,58.05-.03,2.8,0,4.76,.89,5.66,3.64v1.76Z"/><path class="cls-1" d="M89.96,6.63c-.12,.26-.23,.52-.35,.78-.78,1.69-2.08,2.63-3.95,2.75-.23,.01-.47,0-.7,.01-19.7,0-39.4,0-59.1,0-1.24,0-2.39-.2-3.37-1-1.43-1.17-2-3.08-1.45-4.83,.57-1.8,2.14-3.02,4.03-3.14,.38-.02,.76-.01,1.14-.01,19.41,0,38.82,0,58.22,0,3.2,0,4.3,.73,5.52,3.68v1.76Z"/><path class="cls-1" d="M89.96,62.86c-.59,1.89-1.72,3.24-3.77,3.61-.34,.06-.7,.07-1.05,.07-19.85,0-39.69,0-59.54,0-3.34,0-5.55-2.9-4.54-5.91,.6-1.79,2.2-2.98,4.09-3.05,.38-.01,.76,0,1.14,0,19.32,0,38.64,.03,57.96-.04,2.8,0,4.75,.86,5.7,3.57v1.76Z"/><path class="cls-1" d="M0,6.04C0,2.73,2.71,0,6.02,0c3.3,0,6.04,2.72,6.04,6.03,0,3.31-2.72,6.03-6.03,6.04C2.73,12.07,0,9.35,0,6.04Z"/><path class="cls-1" d="M0,61.65c.02-3.31,2.76-6.01,6.07-5.99,3.3,.02,6.03,2.79,5.99,6.08-.04,3.32-2.79,6.03-6.08,5.99C2.66,67.7-.02,64.97,0,61.65Z"/><path class="cls-1" d="M5.99,39.87C2.65,39.85-.01,37.16,0,33.83c.02-3.32,2.72-5.98,6.06-5.97,3.33,.01,6.03,2.74,5.99,6.04-.03,3.33-2.74,5.99-6.07,5.97Z"/></g></g></svg>