<?xml version="1.0" encoding="UTF-8"?><svg xmlns="http://www.w3.org/2000/svg" viewBox="0 0 78.55 73.68"><defs><style>.d{fill:#35b5ac;}</style></defs><g id="a"/><g id="b"><g id="c"><g><path class="d" d="M0,36.25c.6-1.4,1.66-1.86,3.16-1.86,15.41,.03,30.83,.02,46.24,.02h1.1c-.29-.3-.47-.5-.65-.68-6.47-6.47-12.94-12.94-19.42-19.41-.63-.63-1.06-1.32-.96-2.23,.1-.94,.59-1.63,1.46-2.01,.87-.38,1.7-.26,2.46,.3,.22,.17,.42,.38,.62,.58,7.94,7.93,15.87,15.87,23.8,23.8,1.48,1.48,1.48,2.74,0,4.21-7.97,7.97-15.94,15.94-23.91,23.92-.76,.76-1.6,1.18-2.68,.86-1.7-.5-2.32-2.52-1.21-3.89,.18-.22,.39-.41,.58-.61,6.4-6.4,12.8-12.8,19.2-19.19,.2-.2,.45-.34,.67-.5l-.12-.24h-.87c-15.44,0-30.88-.01-46.32,.02-1.51,0-2.56-.47-3.17-1.86v-1.23Z"/><path class="d" d="M78.54,36.88c0,7.29,0,14.57,0,21.86,0,7.4-4.98,13.38-12.24,14.72-.77,.14-1.57,.21-2.36,.21-5.7,.02-11.4,.02-17.1,0-1.96,0-3.2-1.75-2.44-3.43,.47-1.04,1.33-1.48,2.47-1.48,5.65,0,11.3,.02,16.95,0,2.98-.01,5.46-1.17,7.42-3.41,1.57-1.8,2.39-3.92,2.4-6.31,.01-14.8,.02-29.6,0-44.41-.01-5.31-4.38-9.65-9.69-9.68-5.7-.03-11.4,0-17.1-.01-1.89,0-3.12-1.64-2.48-3.3,.38-1.01,1.15-1.59,2.22-1.6,6.03-.02,12.07-.14,18.1,.04,7.55,.23,13.8,6.74,13.86,14.31,.07,7.49,.01,14.98,.01,22.47h0Z"/></g></g></g></svg>