<?xml version="1.0" encoding="UTF-8"?><svg xmlns="http://www.w3.org/2000/svg" viewBox="0 0 104.85 95.19"><defs><style>.d{fill:teal;}.e{fill:#bbf1f1;}.f{fill:#35b5ac;}</style></defs><g id="a"/><g id="b"><g id="c"><g><rect class="f" y="17.87" width="104.85" height="77.32" rx="13.59" ry="13.59"/><rect class="d" x="15.16" y="32.46" width="74.53" height="24.39" rx="12.2" ry="12.2"/><circle class="e" cx="28.03" cy="44.6" r="14.06"/><rect class="d" x="32.85" y="70.07" width="39.67" height="11.27" rx="3.18" ry="3.18"/><path class="f" d="M65.09,.24c-.74-.47-1.72-.25-2.18,.49l-10.22,16.18L42.46,.74c-.47-.74-1.44-.96-2.18-.49-.74,.47-.96,1.44-.49,2.18l11.52,18.23c.31,.49,.84,.75,1.38,.73,.54,.01,1.07-.24,1.38-.73L65.58,2.43c.47-.74,.25-1.72-.49-2.18Z"/></g></g></g></svg>